# xmcd CD database file
#
# Track frame offsets:
#	150
#	20283
#	35637
#	53944
#	74035
#	95820
#	116142
#	136783
#	154386
#	170838
#	189513
#	206204
#
# Disc length: 3064 seconds
#
# Revision: 0
# Processed by: cddbd v1.5.2PL0 Copyright (c) Steve Scherf et al.
# Submitted via: CD2WAV32(JP) R3.22
#
DISCID=bb0bf60c
DTITLE=秋元順子 - マディソン郡の恋
DYEAR=2006
DGENRE=Blues
TTITLE0=マディソン郡の恋
TTITLE1=酔いしれて
TTITLE2=ロンリーナイト東京
TTITLE3=Deja vu(デジャ・ヴュー)
TTITLE4=雨の旅人
TTITLE5=愛の終りに
TTITLE6=別れの理由
TTITLE7=幻～まぼろし～
TTITLE8=遠い思い出
TTITLE9=愛は遥かに(DA TROPPO TEMPO)
TTITLE10=月の浜辺
TTITLE11=マディソン郡の恋(Piano version)
EXTD=
EXTT0=
EXTT1=
EXTT2=
EXTT3=
EXTT4=
EXTT5=
EXTT6=
EXTT7=
EXTT8=
EXTT9=
EXTT10=
EXTT11=
PLAYORDER=
